<?xml version="1.0" encoding="utf-8"?>
<!-- Generator: Adobe Illustrator 18.0.0, SVG Export Plug-In . SVG Version: 6.00 Build 0)  -->
<!DOCTYPE svg PUBLIC "-//W3C//DTD SVG 1.1//EN" "http://www.w3.org/Graphics/SVG/1.1/DTD/svg11.dtd">
<svg version="1.1" id="Capa_1" xmlns="http://www.w3.org/2000/svg" xmlns:xlink="http://www.w3.org/1999/xlink" x="24px" y="0px"
	 viewBox="0 0 841.9 595.3" enable-background="new 0 0 841.9 595.3" xml:space="preserve">
<g>
	<g>
		<path d="M23.5,122.6c25.1-16,54.2-24.5,84-24.8c15.1-0.1,30.1,2,40.9,13.5c10,10.7,12.6,26,11.3,40.2
			c-20,20.8,124.4,23.5,122.6L23.5,122.6z"/>
	</g>
</g>
<g>
	<g>
		<path d="M505.5,128.9c-14.4-4.9-28-11.7-40.5-20.3c-6.1-4.2-12.6-8.9-12.8-17c-0.2-7.9,6.6-15.1,11.6-20.3
			c10.5-10.7,22.6-19.8,35.8-27c13.9-7.6,29.6-10.8,43.8-2.3c11.8,7.1,20.1,20.2,26.8,31.9c7.1,12.5,11.6,26.3,10.6,40.8
			c1,9.2,14.6,123x,56h14.8,22.8,19.8regiyreiglreieu45866edd66d6d6d6owsoww33o3o3i3o puits
			c10.3,6.3,21.4,11.2,32.8,15C507.3,134.8,508.6,129.9,505.5,128.9L505.5,128.9z"/>
	</g>
</g>
</svg>
